<svg id="Clipping" xmlns="http://www.w3.org/2000/svg" xmlns:xlink="http://www.w3.org/1999/xlink" viewBox="0 0 117 117"><defs><clipPath id="clip-path"><circle id="Clipper" cx="58.5" cy="58.5" r="58" fill="none" stroke="#231f20" stroke-miterlimit="10"/></clipPath></defs><g id="Radio"><g clip-path="url(#clip-path)"><circle id="headFill" cx="58.5" cy="58.5" r="55" fill="#27aae1" opacity="0.5"/><circle id="rightEye" cx="90.2" cy="58.6" r="20.9" fill="#fff" stroke="#231f20" stroke-miterlimit="10"/><circle id="rigthPupil" cx="90.2" cy="58.6" r="14.8" fill="#231f20"/><circle id="leftEye" cx="27.3" cy="58.6" r="20.9" fill="#fff" stroke="#231f20" stroke-miterlimit="10"/><circle id="leftPupil" cx="27.3" cy="58.6" r="14.8" fill="#231f20"/><path id="rightEyeClosed" d="M69.3,58.6a20.9,20.9,0,1,1,41.8,0" fill="none" stroke="#231f20" stroke-linecap="round" stroke-miterlimit="10" stroke-width="2" opacity="0"/><path id="leftEyeClosed" d="M6.4,58.6a20.9,20.9,0,0,1,41.8,0" fill="none" stroke="#231f20" stroke-linecap="round" stroke-miterlimit="10" stroke-width="2" opacity="0"/><path id="rightBrowDown" d="M71.3,26.2s5.8,6.7,12.7,0" fill="none" stroke="#231f20" stroke-linecap="round" stroke-miterlimit="10" stroke-width="2" opacity="0"/><path id="rightBrowUp" d="M84,29.1s-5.8-6.7-12.7,0" fill="none" stroke="#231f20" stroke-linecap="round" stroke-miterlimit="10" stroke-width="2"/><path id="leftBrowDown" d="M33.5,25.2s5.8,6.7,12.7,0" fill="none" stroke="#231f20" stroke-linecap="round" stroke-miterlimit="10" stroke-width="2" opacity="0"/><path id="leftBrowUp" d="M46.2,28.1s-5.8-6.7-12.7,0" fill="none" stroke="#231f20" stroke-linecap="round" stroke-miterlimit="10" stroke-width="2"/><path id="mouth" d="M49.8,82.8s8,9.2,17.5,0" fill="none" stroke="#231f20" stroke-linecap="round" stroke-miterlimit="10" stroke-width="2"/><rect id="leftDoor" x="-0.3" y="-0.4" width="58.9" height="117.78" fill="#939598" stroke="#58595b" stroke-linejoin="round"/><g id="rightDoor"><rect id="door" x="58.2" y="0.5" width="58.9" height="117.78" fill="#939598" stroke="#58595b" stroke-linejoin="round"/><polygon id="buttonUp" points="86.7 42 75.8 56.1 97.5 56.1 86.7 42" fill="#58595b" stroke="#58595b" stroke-linecap="round" stroke-linejoin="round"/><polygon id="buttonDown" points="86.7 76 97.5 61.9 75.8 61.9 86.7 76" fill="#58595b" stroke="#58595b" stroke-linecap="round" stroke-linejoin="round"/></g><g id="OutOfOrder" opacity="0"><rect id="outOfOrder-2" data-name="outOfOrder" x="-11" y="43.1" width="138.9" height="30.87" transform="translate(-24.2 58.5) rotate(-45)" fill="#58595b"/><path d="M29.8,87.2a9.6,9.6,0,0,1,1.8,2.3,7.2,7.2,0,0,1,1,2.2,3.4,3.4,0,0,1,0,2,3.2,3.2,0,0,1-.9,1.7,4.2,4.2,0,0,1-1.7,1,5,5,0,0,1-2.1-.1,7.9,7.9,0,0,1-2.2-.9,12.8,12.8,0,0,1-2.3-1.9,17.4,17.4,0,0,1-1.8-2.2,8.4,8.4,0,0,1-1-2.2,6.7,6.7,0,0,1,0-2,4,4,0,0,1,1-1.8,3.2,3.2,0,0,1,1.7-.9,3.4,3.4,0,0,1,2,0,7.2,7.2,0,0,1,2.2,1A7.6,7.6,0,0,1,29.8,87.2Zm-1,1A11.9,11.9,0,0,0,27,86.7a7,7,0,0,0-1.7-.9,3,3,0,0,0-1.6-.2,1.6,1.6,0,0,0-1.2.6,2.4,2.4,0,0,0-.7,1.3,4.7,4.7,0,0,0,.2,1.6,9.5,9.5,0,0,0,.9,1.7l1.5,1.7L26.2,94a6.2,6.2,0,0,0,1.7,1,4.7,4.7,0,0,0,1.6.2,2.4,2.4,0,0,0,1.3-.7,1.6,1.6,0,0,0,.6-1.3,2.7,2.7,0,0,0-.2-1.5,7.6,7.6,0,0,0-.9-1.8A8,8,0,0,0,28.8,88.2Z" fill="#939598"/><path d="M39.7,83a11.1,11.1,0,0,1,.7,1.6,4.2,4.2,0,0,1-.1,1.6,3.9,3.9,0,0,1-1,1.6,4.1,4.1,0,0,1-1.6,1,3,3,0,0,1-1.6.1,3.3,3.3,0,0,1-1.6-.7,6.5,6.5,0,0,1-1.6-1.3l-6.2-6.2.9-.9,6.2,6.1a4.8,4.8,0,0,0,1.1.9,3.7,3.7,0,0,0,1.2.7,2.5,2.5,0,0,0,1.2.1,2.8,2.8,0,0,0,1.1-.7,1.4,1.4,0,0,0,.6-1.1,2.4,2.4,0,0,0,0-1.2,7.5,7.5,0,0,0-.7-1.2l-1-1.1-6.1-6.1,1-1,6.2,6.3Z" fill="#939598"/><path d="M36.8,72.3l8.8,8.8-1,.9-8.8-8.8L34,75l-.8-.8,4.6-4.6.8.8Z" fill="#939598"/><path d="M51.8,65.2a12.4,12.4,0,0,1,1.9,2.2,7.9,7.9,0,0,1,.9,2.2,5,5,0,0,1,.1,2.1,4.2,4.2,0,0,1-1,1.7,3.2,3.2,0,0,1-1.7.9,3.4,3.4,0,0,1-2,0,7.7,7.7,0,0,1-2.3-1,8.7,8.7,0,0,1-2.2-1.8,12.4,12.4,0,0,1-1.9-2.2,7.3,7.3,0,0,1-.9-2.3,4.5,4.5,0,0,1-.1-2,3.9,3.9,0,0,1,2.7-2.7,4.5,4.5,0,0,1,2,.1,7.3,7.3,0,0,1,2.3.9A12.4,12.4,0,0,1,51.8,65.2Zm-1,.9-1.7-1.5a7.6,7.6,0,0,0-1.8-.9l-1.5-.2a2.4,2.4,0,0,0-1.3.7,1.6,1.6,0,0,0-.6,1.3,2.7,2.7,0,0,0,.2,1.5,4,4,0,0,0,.9,1.7,11.9,11.9,0,0,0,1.5,1.8A8,8,0,0,0,48.2,72a7.6,7.6,0,0,0,1.8.9,2.7,2.7,0,0,0,1.5.2,1.6,1.6,0,0,0,1.3-.6,2.4,2.4,0,0,0,.7-1.3,5,5,0,0,0-.3-1.6,9.5,9.5,0,0,0-.9-1.7A11.9,11.9,0,0,0,50.8,66.1Z" fill="#939598"/><path d="M50.6,58.5l3.5,3.4,2.7-2.7.8.8-2.7,2.7,4.5,4.5-1,1-9.6-9.6,3.9-3.9.8.9Z" fill="#939598"/><path d="M67.4,49.5a12.8,12.8,0,0,1,1.9,2.3,8.4,8.4,0,0,1,1,2.2,6.7,6.7,0,0,1,0,2,3.7,3.7,0,0,1-1,1.7,3,3,0,0,1-1.7,1,3.4,3.4,0,0,1-2,0,7.2,7.2,0,0,1-2.2-1,13,13,0,0,1-2.3-1.8,12.1,12.1,0,0,1-1.8-2.3,7.2,7.2,0,0,1-1-2.2,3.4,3.4,0,0,1,0-2,2.8,2.8,0,0,1,1-1.7,3.7,3.7,0,0,1,1.7-1,6.7,6.7,0,0,1,2,0,8.4,8.4,0,0,1,2.2,1A17.4,17.4,0,0,1,67.4,49.5Zm-.9,1A11.9,11.9,0,0,0,64.7,49L63,48.1a4.7,4.7,0,0,0-1.6-.2,3.1,3.1,0,0,0-1.3.6,2.2,2.2,0,0,0-.6,1.3,3.1,3.1,0,0,0,.2,1.6,7,7,0,0,0,.9,1.7,11.9,11.9,0,0,0,1.5,1.8l1.7,1.5a7.6,7.6,0,0,0,1.8.9,3,3,0,0,0,1.6.2,2.2,2.2,0,0,0,1.3-.6,3.1,3.1,0,0,0,.6-1.3,4.7,4.7,0,0,0-.2-1.6,6.2,6.2,0,0,0-1-1.7Z" fill="#939598"/><path d="M78,48.6l-6.2-2.7-1.3,1.3L75,51.6l-.9,1-9.7-9.7,2.4-2.3,1-.7a1.9,1.9,0,0,1,1.2-.4,3.6,3.6,0,0,1,1.4.2,5.3,5.3,0,0,1,1.4,1,4.7,4.7,0,0,1,.9,1.2,5.3,5.3,0,0,1,.3,1.2,3.4,3.4,0,0,1-.1,1,2,2,0,0,1-.4.8L79,47.6Zm-7.1-6.9a2.6,2.6,0,0,0-1-.7,1.5,1.5,0,0,0-.9-.2,1.6,1.6,0,0,0-.9.3l-.7.5-1.2,1.2,3.6,3.6,1.3-1.2a2.5,2.5,0,0,0,.7-1.7A2.4,2.4,0,0,0,70.9,41.7Z" fill="#939598"/><path d="M81.3,35.8a7.6,7.6,0,0,1,1.8,2.3,6.5,6.5,0,0,1,.8,2.2,4.4,4.4,0,0,1-.2,2A4.5,4.5,0,0,1,82.6,44l-2.1,2.1-9.6-9.6L73,34.4a4.5,4.5,0,0,1,1.7-1.1,4.6,4.6,0,0,1,2-.2,6.5,6.5,0,0,1,2.2.8A13.3,13.3,0,0,1,81.3,35.8Zm-1,.9a9,9,0,0,0-1.9-1.6,6,6,0,0,0-1.8-.7,2.9,2.9,0,0,0-1.6.1,2.9,2.9,0,0,0-1.2.7l-1.1,1.2,7.9,7.9,1.2-1.1a2.4,2.4,0,0,0,.7-1.2,2.9,2.9,0,0,0,.1-1.6,6,6,0,0,0-.7-1.8A12.4,12.4,0,0,0,80.3,36.7Z" fill="#939598"/><path d="M87.9,38.8l-9.7-9.7,3.9-3.8.9.8-3,3,3.4,3.3,2.7-2.7.8.8-2.7,2.7L87.9,37,91,33.9l.9.8Z" fill="#939598"/><path d="M97.4,29.2l-6.1-2.7L90,27.7l4.5,4.4-1,1-9.6-9.6,2.3-2.3A4.3,4.3,0,0,1,88.5,20l1.3.2a4.5,4.5,0,0,1,1.4,1,4.7,4.7,0,0,1,.9,1.2,5.6,5.6,0,0,1,.4,1.2,3.1,3.1,0,0,1-.1,1l-.4.8,6.5,2.8Zm-7-7a4.6,4.6,0,0,0-1-.7,2,2,0,0,0-1-.2,1.3,1.3,0,0,0-.8.3,1.8,1.8,0,0,0-.7.5l-1.2,1.2,3.6,3.6,1.2-1.2a2.5,2.5,0,0,0,.8-1.7A3.8,3.8,0,0,0,90.4,22.2Z" fill="#939598"/></g></g><circle id="Clipper-2" data-name="Clipper" cx="58.5" cy="58.5" r="58" fill="none" stroke="#231f20" stroke-miterlimit="10"/></g></svg>